<mxfile host="app.diagrams.net" modified="2023-05-20T13:30:44.401Z" agent="Mozilla/5.0 (Windows NT 10.0; Win64; x64) AppleWebKit/537.36 (KHTML, like Gecko) Chrome/113.0.0.0 Safari/537.36 Edg/113.0.1774.50" version="21.3.2" etag="W-N6159BpoywlejtZauF" type="github">
  <diagram name="Σελίδα-1" id="MfEo22dxZpBmNO9w6E0a">
    <mxGraphModel>
      <root>
        <mxCell id="0" />
        <mxCell id="1" parent="0" />
      </root>
    </mxGraphModel>
  </diagram>
</mxfile>
